<svg width="249" height="250" viewBox="0 0 249 250" fill="none" xmlns="http://www.w3.org/2000/svg">
<path d="M0 0H249V250H0V0Z" fill="#E0E0E2"/>
<path d="M102.422 115H96.8359V92.5977H88.418V86.9922H110.82V92.5977H102.422V115Z" fill="#F9F9F9"/>
<path d="M119.395 115H113.789V86.9922H119.395V98.2031H130.586V86.9922H136.191V115H130.586V103.809H119.395V115Z" fill="#F9F9F9"/>
<path d="M160.605 115H141.406V86.9922H160.605V92.5977H147.012V98.2031H156.211V103.809H147.012V109.395H160.605V115Z" fill="#F9F9F9"/>
<path d="M60.8594 165H55.2734V145C55.2734 144.609 55.1953 144.245 55.0391 143.906C54.8958 143.568 54.694 143.275 54.4336 143.027C54.1862 142.767 53.8932 142.565 53.5547 142.422C53.2161 142.279 52.8516 142.207 52.4609 142.207C52.0703 142.207 51.7057 142.279 51.3672 142.422C51.0286 142.565 50.7292 142.767 50.4688 143.027C50.2214 143.275 50.026 143.568 49.8828 143.906C49.7396 144.245 49.668 144.609 49.668 145V165H44.0625V145C44.0625 144.609 43.9909 144.245 43.8477 143.906C43.7044 143.568 43.5026 143.275 43.2422 143.027C42.9948 142.767 42.7018 142.565 42.3633 142.422C42.0247 142.279 41.6602 142.207 41.2695 142.207C40.8789 142.207 40.5143 142.279 40.1758 142.422C39.8372 142.565 39.5378 142.767 39.2773 143.027C39.0299 143.275 38.8346 143.568 38.6914 143.906C38.5482 144.245 38.4766 144.609 38.4766 145V165H32.8711V145C32.8711 143.841 33.0859 142.754 33.5156 141.738C33.9583 140.71 34.5573 139.818 35.3125 139.062C36.0807 138.294 36.9727 137.695 37.9883 137.266C39.0169 136.823 40.1107 136.602 41.2695 136.602C42.3112 136.602 43.3138 136.79 44.2773 137.168C45.2409 137.533 46.1068 138.066 46.875 138.77C47.6432 138.066 48.5026 137.533 49.4531 137.168C50.4167 136.79 51.4193 136.602 52.4609 136.602C53.6198 136.602 54.707 136.823 55.7227 137.266C56.7513 137.695 57.6432 138.294 58.3984 139.062C59.1667 139.818 59.7656 140.71 60.1953 141.738C60.638 142.754 60.8594 143.841 60.8594 145V165Z" fill="#F9F9F9"/>
<path d="M85.0781 165H65.8789V136.992H85.0781V142.598H71.4844V148.203H80.6836V153.809H71.4844V159.395H85.0781V165Z" fill="#F9F9F9"/>
<path d="M116.797 165H111.211V145C111.211 144.609 111.133 144.245 110.977 143.906C110.833 143.568 110.632 143.275 110.371 143.027C110.124 142.767 109.831 142.565 109.492 142.422C109.154 142.279 108.789 142.207 108.398 142.207C108.008 142.207 107.643 142.279 107.305 142.422C106.966 142.565 106.667 142.767 106.406 143.027C106.159 143.275 105.964 143.568 105.82 143.906C105.677 144.245 105.605 144.609 105.605 145V165H100V145C100 144.609 99.9284 144.245 99.7852 143.906C99.6419 143.568 99.4401 143.275 99.1797 143.027C98.9323 142.767 98.6393 142.565 98.3008 142.422C97.9622 142.279 97.5977 142.207 97.207 142.207C96.8164 142.207 96.4518 142.279 96.1133 142.422C95.7747 142.565 95.4753 142.767 95.2148 143.027C94.9674 143.275 94.7721 143.568 94.6289 143.906C94.4857 144.245 94.4141 144.609 94.4141 145V165H88.8086V145C88.8086 143.841 89.0234 142.754 89.4531 141.738C89.8958 140.71 90.4948 139.818 91.25 139.062C92.0182 138.294 92.9102 137.695 93.9258 137.266C94.9544 136.823 96.0482 136.602 97.207 136.602C98.2487 136.602 99.2513 136.79 100.215 137.168C101.178 137.533 102.044 138.066 102.812 138.77C103.581 138.066 104.44 137.533 105.391 137.168C106.354 136.79 107.357 136.602 108.398 136.602C109.557 136.602 110.645 136.823 111.66 137.266C112.689 137.695 113.581 138.294 114.336 139.062C115.104 139.818 115.703 140.71 116.133 141.738C116.576 142.754 116.797 143.841 116.797 145V165Z" fill="#F9F9F9"/>
<path d="M144.219 156.602C144.219 157.76 143.997 158.848 143.555 159.863C143.112 160.879 142.507 161.771 141.738 162.539C140.983 163.294 140.098 163.893 139.082 164.336C138.066 164.779 136.979 165 135.82 165H121.816V136.992H135.82C136.979 136.992 138.066 137.214 139.082 137.656C140.098 138.099 140.983 138.704 141.738 139.473C142.507 140.228 143.112 141.113 143.555 142.129C143.997 143.145 144.219 144.232 144.219 145.391C144.219 145.911 144.147 146.445 144.004 146.992C143.861 147.539 143.659 148.066 143.398 148.574C143.138 149.082 142.826 149.544 142.461 149.961C142.096 150.378 141.693 150.723 141.25 150.996C141.706 151.243 142.116 151.582 142.48 152.012C142.845 152.428 143.158 152.891 143.418 153.398C143.678 153.906 143.874 154.44 144.004 155C144.147 155.547 144.219 156.081 144.219 156.602ZM127.422 159.395H135.82C136.211 159.395 136.576 159.323 136.914 159.18C137.253 159.036 137.546 158.841 137.793 158.594C138.053 158.333 138.255 158.034 138.398 157.695C138.542 157.357 138.613 156.992 138.613 156.602C138.613 156.211 138.542 155.846 138.398 155.508C138.255 155.169 138.053 154.876 137.793 154.629C137.546 154.368 137.253 154.167 136.914 154.023C136.576 153.88 136.211 153.809 135.82 153.809H127.422V159.395ZM127.422 148.203H135.82C136.211 148.203 136.576 148.132 136.914 147.988C137.253 147.845 137.546 147.65 137.793 147.402C138.053 147.142 138.255 146.842 138.398 146.504C138.542 146.152 138.613 145.781 138.613 145.391C138.613 145 138.542 144.635 138.398 144.297C138.255 143.958 138.053 143.665 137.793 143.418C137.546 143.158 137.253 142.956 136.914 142.812C136.576 142.669 136.211 142.598 135.82 142.598H127.422V148.203Z" fill="#F9F9F9"/>
<path d="M167.656 165H148.457V136.992H167.656V142.598H154.062V148.203H163.262V153.809H154.062V159.395H167.656V165Z" fill="#F9F9F9"/>
<path d="M177.188 142.598V153.809H182.793C183.561 153.809 184.284 153.665 184.961 153.379C185.638 153.079 186.23 152.676 186.738 152.168C187.246 151.66 187.643 151.068 187.93 150.391C188.229 149.701 188.379 148.971 188.379 148.203C188.379 147.435 188.229 146.712 187.93 146.035C187.643 145.345 187.246 144.746 186.738 144.238C186.23 143.73 185.638 143.333 184.961 143.047C184.284 142.747 183.561 142.598 182.793 142.598H177.188ZM177.188 165H171.582V136.992H182.793C183.822 136.992 184.811 137.129 185.762 137.402C186.712 137.663 187.598 138.04 188.418 138.535C189.251 139.017 190.007 139.603 190.684 140.293C191.374 140.97 191.96 141.725 192.441 142.559C192.936 143.392 193.314 144.284 193.574 145.234C193.848 146.185 193.984 147.174 193.984 148.203C193.984 149.167 193.861 150.104 193.613 151.016C193.379 151.927 193.034 152.793 192.578 153.613C192.135 154.434 191.589 155.189 190.938 155.879C190.286 156.569 189.557 157.168 188.75 157.676L191.855 165H185.898L183.457 159.355L177.188 159.395V165Z" fill="#F9F9F9"/>
<path d="M196.035 145.391C196.035 144.232 196.257 143.145 196.699 142.129C197.142 141.113 197.741 140.228 198.496 139.473C199.264 138.704 200.156 138.099 201.172 137.656C202.188 137.214 203.275 136.992 204.434 136.992H217.285V142.598H204.434C204.043 142.598 203.678 142.669 203.34 142.812C203.001 142.956 202.702 143.158 202.441 143.418C202.194 143.665 201.999 143.958 201.855 144.297C201.712 144.635 201.641 145 201.641 145.391C201.641 145.781 201.712 146.152 201.855 146.504C201.999 146.842 202.194 147.142 202.441 147.402C202.702 147.65 203.001 147.845 203.34 147.988C203.678 148.132 204.043 148.203 204.434 148.203H210.039C211.198 148.203 212.285 148.424 213.301 148.867C214.329 149.297 215.221 149.896 215.977 150.664C216.745 151.419 217.344 152.311 217.773 153.34C218.216 154.355 218.438 155.443 218.438 156.602C218.438 157.76 218.216 158.848 217.773 159.863C217.344 160.879 216.745 161.771 215.977 162.539C215.221 163.294 214.329 163.893 213.301 164.336C212.285 164.779 211.198 165 210.039 165H197.598V159.395H210.039C210.43 159.395 210.794 159.323 211.133 159.18C211.471 159.036 211.764 158.841 212.012 158.594C212.272 158.333 212.474 158.034 212.617 157.695C212.76 157.357 212.832 156.992 212.832 156.602C212.832 156.211 212.76 155.846 212.617 155.508C212.474 155.169 212.272 154.876 212.012 154.629C211.764 154.368 211.471 154.167 211.133 154.023C210.794 153.88 210.43 153.809 210.039 153.809H204.434C203.275 153.809 202.188 153.587 201.172 153.145C200.156 152.702 199.264 152.103 198.496 151.348C197.741 150.579 197.142 149.688 196.699 148.672C196.257 147.643 196.035 146.549 196.035 145.391Z" fill="#F9F9F9"/>
</svg>
